<?xml version="1.0" encoding="UTF-8"?>
<svg id="Ebene_1" xmlns="http://www.w3.org/2000/svg" xmlns:xlink="http://www.w3.org/1999/xlink" viewBox="0 0 728.16 147.44">
  <defs>
    <style>
      .cls-1 {
        fill: url(#Unbenannter_Verlauf_36-10);
      }

      .cls-2 {
        fill: #1c0018;
      }

      .cls-3 {
        fill: url(#Unbenannter_Verlauf_36-3);
      }

      .cls-4 {
        fill: url(#Unbenannter_Verlauf_36-4);
      }

      .cls-5 {
        fill: url(#Unbenannter_Verlauf_36-2);
      }

      .cls-6 {
        fill: url(#Unbenannter_Verlauf_36-5);
      }

      .cls-7 {
        fill: url(#Unbenannter_Verlauf_36-6);
      }

      .cls-8 {
        fill: url(#Unbenannter_Verlauf_36-8);
      }

      .cls-9 {
        fill: url(#Unbenannter_Verlauf_36-9);
      }

      .cls-10 {
        fill: url(#Unbenannter_Verlauf_36-7);
      }

      .cls-11 {
        fill: url(#Unbenannter_Verlauf_36);
      }

      .cls-12 {
        fill: #bb0056;
      }
    </style>
    <linearGradient id="Unbenannter_Verlauf_36" data-name="Unbenannter Verlauf 36" x1="-.42" y1="-2.11" x2="151.71" y2="148.42" gradientUnits="userSpaceOnUse">
      <stop offset="0" stop-color="#fdb913"/>
      <stop offset=".09" stop-color="#f8ac17"/>
      <stop offset=".25" stop-color="#ed8c23"/>
      <stop offset=".46" stop-color="#da5835"/>
      <stop offset=".72" stop-color="#c1114f"/>
      <stop offset=".78" stop-color="#bb0056"/>
    </linearGradient>
    <linearGradient id="Unbenannter_Verlauf_36-2" data-name="Unbenannter Verlauf 36" x1="19.48" y1="-22.22" x2="171.61" y2="128.31" gradientTransform="translate(2.86 -8.71) rotate(9.22)" xlink:href="#Unbenannter_Verlauf_36"/>
    <linearGradient id="Unbenannter_Verlauf_36-3" data-name="Unbenannter Verlauf 36" x1="59.26" y1="-62.43" x2="211.39" y2="88.1" gradientTransform="translate(96.28 -117.28) rotate(67.5)" xlink:href="#Unbenannter_Verlauf_36"/>
    <linearGradient id="Unbenannter_Verlauf_36-4" data-name="Unbenannter Verlauf 36" x1="39.16" y1="-42.11" x2="191.29" y2="108.42" gradientTransform="translate(10.34 -21.08) rotate(9.22)" xlink:href="#Unbenannter_Verlauf_36"/>
    <linearGradient id="Unbenannter_Verlauf_36-5" data-name="Unbenannter Verlauf 36" x1="-40.63" y1="38.52" x2="111.51" y2="189.05" xlink:href="#Unbenannter_Verlauf_36"/>
    <linearGradient id="Unbenannter_Verlauf_36-6" data-name="Unbenannter Verlauf 36" x1="19.26" y1="-22" x2="171.39" y2="128.53" xlink:href="#Unbenannter_Verlauf_36"/>
    <linearGradient id="Unbenannter_Verlauf_36-7" data-name="Unbenannter Verlauf 36" x1="-40.73" y1="38.63" x2="111.4" y2="189.16" xlink:href="#Unbenannter_Verlauf_36"/>
    <linearGradient id="Unbenannter_Verlauf_36-8" data-name="Unbenannter Verlauf 36" x1="-40.84" y1="38.74" x2="111.29" y2="189.27" gradientTransform="translate(158.08 31.49) rotate(67.5)" xlink:href="#Unbenannter_Verlauf_36"/>
    <linearGradient id="Unbenannter_Verlauf_36-9" data-name="Unbenannter Verlauf 36" x1="-.84" y1="-1.69" x2="151.29" y2="148.84" xlink:href="#Unbenannter_Verlauf_36"/>
    <linearGradient id="Unbenannter_Verlauf_36-10" data-name="Unbenannter Verlauf 36" x1="-1.05" y1="-1.47" x2="151.08" y2="149.06" gradientTransform="translate(23.23 -20.04) rotate(9.22)" xlink:href="#Unbenannter_Verlauf_36"/>
  </defs>
  <path class="cls-2" d="M296.15,126.6h-75.3c-7.27,0-13.72-4.36-16.43-11.1-2.71-6.74-1.08-14.35,4.17-19.39.28-.27.58-.51.9-.73l78.03-53.31c1.26-1.48.83-3.08.57-3.74-.28-.7-1.18-2.33-3.44-2.33h-75.3c-3.87,0-7-3.13-7-7s3.13-7,7-7h75.3c7.27,0,13.72,4.36,16.43,11.1,2.71,6.74,1.08,14.35-4.17,19.39-.28.27-.58.51-.9.73l-78.03,53.31c-1.26,1.48-.83,3.08-.57,3.74.28.7,1.18,2.33,3.44,2.33h75.3c3.87,0,7,3.13,7,7s-3.13,7-7,7ZM292.06,47.45h0,0Z"/>
  <path class="cls-2" d="M391.25,22.01h-64.04c-3.87,0-7,3.13-7,7s3.13,7,7,7h64.04c10.38,0,18.82,8.44,18.82,18.82v12.47h-63.42c-16.35,0-29.65,13.3-29.65,29.65s13.3,29.65,29.65,29.65h40.08c3.87,0,7-3.13,7-7s-3.13-7-7-7h-40.08c-8.63,0-15.65-7.02-15.65-15.65s7.02-15.65,15.65-15.65h63.42v38.29c0,3.87,3.13,7,7,7s7-3.13,7-7V54.83c0-18.1-14.73-32.82-32.82-32.82Z"/>
  <path class="cls-12" d="M567.6,127.11c-3.87,0-7-3.13-7-7V29.01c0-3.87,3.13-7,6.99-7,3.87,0,7,3.13,7,7v91.1c0,3.87-3.13,7-6.99,7Z"/>
  <circle class="cls-2" cx="597.34" cy="119.69" r="7.71"/>
  <path class="cls-2" d="M675.87,126.6h-48.6c-3.87,0-7-3.13-7-7s3.13-7,7-7h48.6c21.12,0,38.29-17.18,38.29-38.29s-17.18-38.29-38.29-38.29h-41.6v48.24c0,3.87-3.13,7-7,7s-7-3.13-7-7v-51.67c0-5.83,4.74-10.57,10.57-10.57h45.03c28.84,0,52.29,23.46,52.29,52.29s-23.46,52.29-52.29,52.29Z"/>
  <g>
    <circle class="cls-11" cx="15.27" cy="13.4" r="13.4"/>
    <circle class="cls-5" cx="55.48" cy="13.4" r="13.4" transform="translate(-1.43 9.06) rotate(-9.22)"/>
    <circle class="cls-3" cx="135.9" cy="13.4" r="13.4" transform="translate(71.51 133.83) rotate(-67.5)"/>
    <circle class="cls-4" cx="135.9" cy="53.61" r="13.4" transform="translate(-6.83 22.46) rotate(-9.22)"/>
    <circle class="cls-6" cx="15.27" cy="93.83" r="13.4"/>
    <path class="cls-7" d="M95.69,107.23h0c7.39,0,13.4-6.01,13.4-13.4s-5.47-12.89-12.45-13.37c-14.1-.98-25.04-12.7-25.04-26.84s10.94-25.86,25.04-26.84c6.98-.49,12.45-5.98,12.45-13.37S103.06,0,95.69,0s-13.39,6-13.4,13.37c-.04,14.79-12.01,26.78-26.8,26.84,0,0,0,0-.01,0-7.4,0-13.4,6-13.4,13.4,0,6.27,4.31,11.51,10.12,12.98.19.05.39.11.58.15.05.01.11.01.16.02.81.16,1.65.25,2.51.25,14.81.04,26.81,12.03,26.84,26.84.02,7.37,6.03,13.37,13.4,13.37Z"/>
    <path class="cls-10" d="M55.48,80.42c-.2,0-.4,0-.6.01-.39.02-.78.02-1.17.02-6.91,0-13.58-2.66-18.59-7.46-5.3-5.07-8.3-12.08-8.31-19.41-.01-7.38-6.01-13.39-13.4-13.39S0,46.22,0,53.61c0,3.46,1.33,6.76,3.75,9.27,2.41,2.51,5.63,3.98,9.06,4.12,14.16.6,25.43,12.09,25.76,26.26.33,14.17-10.4,26.17-24.52,27.42-6.83.61-12.19,6.47-12.19,13.35,0,7.39,6.01,13.4,13.4,13.4h0c7.37,0,13.39-6,13.4-13.37.03-14.81,12.03-26.81,26.84-26.84,7.37-.02,13.37-6.01,13.37-13.4s-6.01-13.4-13.4-13.4Z"/>
    <circle class="cls-8" cx="55.48" cy="134.04" r="13.4" transform="translate(-89.59 134) rotate(-67.5)"/>
    <path class="cls-9" d="M135.93,80.42c-14.81-.04-26.81-12.03-26.84-26.84-.02-7.37-6.01-13.37-13.4-13.37s-13.4,6.01-13.4,13.4c0,7.01,5.47,12.89,12.45,13.37,14.1.98,25.04,12.7,25.04,26.84s-10.94,25.86-25.04,26.84c-6.98.49-12.45,5.98-12.45,13.37s6.01,13.4,13.4,13.4h0c7.37,0,13.39-6,13.4-13.37.04-14.81,12.03-26.81,26.84-26.84,7.37-.02,13.37-6.03,13.37-13.4s-6-13.39-13.37-13.4Z"/>
    <circle class="cls-1" cx="135.9" cy="134.04" r="13.4" transform="translate(-19.72 23.5) rotate(-9.22)"/>
  </g>
  <path class="cls-12" d="M541.17,116.61l-37.29-42.27,33.24-36.98c2.58-2.88,2.35-7.3-.53-9.89-2.88-2.58-7.3-2.35-9.89.53l-35.32,39.29h-34.33V29c0-3.87-3.13-7-7-7s-7,3.13-7,7v90.59c0,3.87,3.13,7,7,7s7-3.13,7-7v-38.29h34.29l39.32,44.57c1.38,1.57,3.31,2.37,5.25,2.37,1.65,0,3.3-.58,4.63-1.75,2.9-2.56,3.18-6.98.62-9.88Z"/>
</svg>